<?xml version="1.0" standalone="no"?><!DOCTYPE svg PUBLIC "-//W3C//DTD SVG 1.1//EN" "http://www.w3.org/Graphics/SVG/1.1/DTD/svg11.dtd"><svg t="1683546076162" class="icon" viewBox="0 0 1024 1024" version="1.1" xmlns="http://www.w3.org/2000/svg" p-id="15264" xmlns:xlink="http://www.w3.org/1999/xlink" width="200" height="200"><path d="M962.930766 595.210318a210.145092 210.145092 0 0 0-129.946408-61.169623 206.731907 206.731907 0 0 0 68.910636-154.195634 207.601935 207.601935 0 0 0-207.646552-207.624243c-109.556533 0-199.258594 84.861139-207.044224 192.409917 97.465383 42.162869 165.862925 139.293626 165.862925 252.062568 0 41.181299-9.369526 81.425646-26.792384 117.944491a276.891813 276.891813 0 0 1 68.397543 50.416975 279.078036 279.078036 0 0 1 80.53331 197.451614l-0.044617 1.494663-0.044617 1.271578-1.829288 34.734173H1022.003399l2.052372-275.062524a209.988933 209.988933 0 0 0-61.125005-149.733955z" p-id="15265" fill="#ffffff"></path><path d="M517.253627 770.933554a206.821141 206.821141 0 0 0 68.977561-154.195634 207.66886 207.66886 0 0 0-207.66886-207.66886 207.646551 207.646551 0 0 0-207.668859 207.66886 206.843449 206.843449 0 0 0 68.799093 154.061784c-107.972637 8.365649-193.257636 97.7777-194.038429 207.869635l-2.052373 41.337458H706.294976l2.052373-38.236591a210.1674 210.1674 0 0 0-191.093722-210.836652zM133.995381 253.735698v77.142434a57.957213 57.957213 0 0 0 115.86981 0v-77.142434h77.0532a57.957213 57.957213 0 0 0 0-115.847501h-77.0532V61.883491a57.934905 57.934905 0 1 0-115.86981 0V137.865888H57.968367a57.912596 57.912596 0 0 0 0 115.847501h76.027014z" p-id="15266" fill="#ffffff"></path></svg>