<?xml version="1.0" standalone="no"?><!DOCTYPE svg PUBLIC "-//W3C//DTD SVG 1.1//EN" "http://www.w3.org/Graphics/SVG/1.1/DTD/svg11.dtd"><svg t="1683560525232" class="icon" viewBox="0 0 1024 1024" version="1.1" xmlns="http://www.w3.org/2000/svg" p-id="14719" xmlns:xlink="http://www.w3.org/1999/xlink" width="200" height="200"><path d="M912 416H432a48 48 0 0 1-48-48V112a48 48 0 0 1 48-48h480a48 48 0 0 1 48 48v256a48 48 0 0 1-48 48zM432 96a16 16 0 0 0-16 16v256a16 16 0 0 0 16 16h480a16 16 0 0 0 16-16V112a16 16 0 0 0-16-16z" p-id="14720" fill="#707070"></path><path d="M832 352H512a16 16 0 0 1-16-16 32 32 0 0 0-32-32 16 16 0 0 1-16-16v-96a16 16 0 0 1 16-16 32 32 0 0 0 32-32 16 16 0 0 1 16-16h320a16 16 0 0 1 16 16 32 32 0 0 0 32 32 16 16 0 0 1 16 16v96a16 16 0 0 1-16 16 32 32 0 0 0-32 32 16 16 0 0 1-16 16z m-306.08-32h292.16A64 64 0 0 1 864 274.08v-68.16A64 64 0 0 1 818.08 160H525.92A64 64 0 0 1 480 205.92v68.16A64 64 0 0 1 525.92 320zM592 960H112a48 48 0 0 1-48-48V656a48 48 0 0 1 48-48h480a48 48 0 0 1 48 48v256a48 48 0 0 1-48 48zM112 640a16 16 0 0 0-16 16v256a16 16 0 0 0 16 16h480a16 16 0 0 0 16-16V656a16 16 0 0 0-16-16z" p-id="14721" fill="#707070"></path><path d="M672 320a80 80 0 1 1 80-80 80 80 0 0 1-80 80z m0-128a48 48 0 1 0 48 48 48 48 0 0 0-48-48zM352 880a96 96 0 1 1 96-96 96 96 0 0 1-96 96z m0-160a64 64 0 1 0 64 64 64 64 0 0 0-64-64zM208 528a16 16 0 0 1-16-16v-144a144 144 0 0 1 144-144 16 16 0 0 1 0 32 112 112 0 0 0-112 112v144a16 16 0 0 1-16 16z" p-id="14722" fill="#707070"></path><path d="M208 528a16 16 0 0 1-11.36-4.64l-56-56a16 16 0 0 1 22.72-22.72l44.64 44.8 44.64-44.8a16 16 0 0 1 22.72 22.72l-56 56A16 16 0 0 1 208 528zM688 816a16 16 0 0 1 0-32 112 112 0 0 0 112-112v-144a16 16 0 0 1 32 0v144a144 144 0 0 1-144 144z" p-id="14723" fill="#707070"></path><path d="M872 600a16 16 0 0 1-11.36-4.64L816 550.56l-44.64 44.8a16 16 0 0 1-22.72-22.72l56-56a16 16 0 0 1 22.72 0l56 56a16 16 0 0 1 0 22.72 16 16 0 0 1-11.36 4.64zM208 752H144a16 16 0 0 1 0-32h64a16 16 0 0 1 0 32zM208 848H144a16 16 0 0 1 0-32h64a16 16 0 0 1 0 32zM560 752h-64a16 16 0 0 1 0-32h64a16 16 0 0 1 0 32zM560 848h-64a16 16 0 0 1 0-32h64a16 16 0 0 1 0 32z" p-id="14724" fill="#707070"></path></svg>