<?xml version="1.0" standalone="no"?><!DOCTYPE svg PUBLIC "-//W3C//DTD SVG 1.1//EN" "http://www.w3.org/Graphics/SVG/1.1/DTD/svg11.dtd"><svg t="1683556424685" class="icon" viewBox="0 0 1024 1024" version="1.1" xmlns="http://www.w3.org/2000/svg" p-id="9811" data-spm-anchor-id="a313x.7781069.0.i22" xmlns:xlink="http://www.w3.org/1999/xlink" width="200" height="200"><path d="M947.279249 319.364167L545.272178 115.771738a75.2525 75.2525 0 0 0-34.01859-8.119411v46.437295c4.512263 0 9.02043 1.07508 13.037131 3.10954l355.015855 179.794263-48.370391 24.583486-46.437295 23.601581-260.803046 132.550146a29.237045 29.237045 0 0 1-13.182523 3.161758c-4.513287 0-9.022477-1.07508-13.03918-3.109539L240.037628 387.404419l-46.437295-23.517622-51.140001-25.89918 355.610732-180.735213a29.237045 29.237045 0 0 1 13.182524-3.161758V107.653351h-0.001024a75.520758 75.520758 0 0 0-34.222343 8.201321L74.530661 320.419793c-14.416305 7.326923-14.440879 27.903947-0.043004 35.196058l119.111652 60.323228V760.811301c0 19.39034 9.94807 37.457821 26.400883 47.7192 46.440367 28.965716 151.345609 82.507751 292.268066 82.507751 138.607452 0 244.748524-53.678212 291.900491-82.617307 16.658614-10.224519 26.768458-28.402579 26.768458-47.94855V413.668101l116.300062-59.107876c14.415281-7.325899 14.439855-27.903947 0.04198-35.196058zM784.498888 760.472395c0 3.413634-1.771322 6.621466-4.621818 8.370263-21.419681 13.146688-56.57376 32.111092-102.406963 47.805205-54.167629 18.547683-109.749244 27.952069-165.201849 27.95207-56.473419 0-112.498376-9.381861-166.516518-27.886541-45.618187-15.626538-80.199914-34.502888-101.176252-47.586094-2.799302-1.745724-4.53786-4.933079-4.53786-8.317021V439.457725l236.457101 119.75158a75.259667 75.259667 0 0 0 34.019613 8.11941 75.520758 75.520758 0 0 0 34.222343-8.201321l239.762203-121.856688v323.201689z" fill="" p-id="9812"></path><path d="M900.671989 617.578959c-12.82314 0-23.218648-10.395508-23.218648-23.218647V436.887773c0-12.82314 10.395508-23.218648 23.218648-23.218648s23.218648 10.395508 23.218647 23.218648v157.472539c0 12.82314-10.394484 23.218648-23.218647 23.218647zM900.671989 741.469083c-12.82314 0-23.218648-10.395508-23.218648-23.218647v-42.678612c0-12.82314 10.395508-23.218648 23.218648-23.218648s23.218648 10.395508 23.218647 23.218648v42.678612c0 12.82314-10.394484 23.218648-23.218647 23.218647z" fill="#d81e06" p-id="9813" data-spm-anchor-id="a313x.7781069.0.i23" class="selected"></path></svg>