<?xml version="1.0" standalone="no"?><!DOCTYPE svg PUBLIC "-//W3C//DTD SVG 1.1//EN" "http://www.w3.org/Graphics/SVG/1.1/DTD/svg11.dtd"><svg t="1683556359278" class="icon" viewBox="0 0 1024 1024" version="1.1" xmlns="http://www.w3.org/2000/svg" p-id="9051" data-spm-anchor-id="a313x.7781069.0.i14" xmlns:xlink="http://www.w3.org/1999/xlink" width="200" height="200"><path d="M504 928a408 408 0 1 1 133.44-793.6 24 24 0 1 1-16 45.28A360 360 0 1 0 850.56 422.4a24 24 0 0 1 46.24-12.96A408.16 408.16 0 0 1 504 928z" p-id="9052"></path><path d="M664 512h-320a24 24 0 0 1 0-48h320a24 24 0 0 1 0 48zM632 624h-256a24 24 0 0 1 0-48h256a24 24 0 0 1 0 48z" p-id="9053" data-spm-anchor-id="a313x.7781069.0.i15" class="selected" fill="#d81e06"></path><path d="M504 768a24 24 0 0 1-24-24v-256a24 24 0 0 1 48 0v256a24 24 0 0 1-24 24z" p-id="9054" data-spm-anchor-id="a313x.7781069.0.i16" class="selected" fill="#d81e06"></path><path d="M504 512a23.68 23.68 0 0 1-18.88-9.28l-112-144a24 24 0 1 1 37.76-29.44l93.12 119.68 93.12-119.68a24 24 0 0 1 37.76 29.44l-112 144a23.68 23.68 0 0 1-18.88 9.28zM872 304h-160a24 24 0 0 1 0-48h160a24 24 0 0 1 0 48z" p-id="9055" data-spm-anchor-id="a313x.7781069.0.i11" class="selected" fill="#d81e06"></path><path d="M792 384a24 24 0 0 1-24-24v-160a24 24 0 0 1 48 0v160a24 24 0 0 1-24 24z" p-id="9056" data-spm-anchor-id="a313x.7781069.0.i13" class="selected" fill="#d81e06"></path></svg>