<?xml version="1.0" standalone="no"?><!DOCTYPE svg PUBLIC "-//W3C//DTD SVG 1.1//EN" "http://www.w3.org/Graphics/SVG/1.1/DTD/svg11.dtd"><svg t="1683537074683" class="icon" viewBox="0 0 1024 1024" version="1.1" xmlns="http://www.w3.org/2000/svg" p-id="4783" xmlns:xlink="http://www.w3.org/1999/xlink" width="200" height="200"><path d="M649.6 960c-12.8 0-25.6-9.6-28.8-22.4-6.4-16 3.2-35.2 19.2-41.6l256-86.4V428.8l-115.2 38.4c-16 6.4-35.2-3.2-41.6-19.2-6.4-16 3.2-35.2 19.2-41.6l160-51.2c9.6-6.4 19.2-3.2 28.8 3.2 6.4 6.4 12.8 16 12.8 25.6v448c0 12.8-9.6 25.6-22.4 28.8l-278.4 96c-3.2 3.2-6.4 3.2-9.6 3.2z" fill="#ffffff" p-id="4784"></path><path d="M649.6 960c-3.2 0-6.4 0-9.6-3.2l-278.4-96c-16-6.4-25.6-22.4-19.2-41.6 6.4-16 22.4-25.6 41.6-19.2l278.4 96c16 6.4 25.6 22.4 19.2 41.6-6.4 12.8-19.2 22.4-32 22.4z" fill="#ffffff" p-id="4785"></path><path d="M96 960c-6.4 0-12.8-3.2-19.2-6.4-9.6-6.4-12.8-16-12.8-25.6V480c0-12.8 9.6-25.6 22.4-28.8l73.6-28.8c16-6.4 35.2 3.2 41.6 19.2s-3.2 35.2-19.2 41.6l-54.4 19.2v380.8l233.6-80c16-6.4 35.2 3.2 41.6 19.2 6.4 16-3.2 35.2-19.2 41.6l-278.4 96H96z" fill="#ffffff" p-id="4786"></path><path d="M480 416c-54.4 0-96-41.6-96-96s41.6-96 96-96 96 41.6 96 96-41.6 96-96 96z m0-128c-19.2 0-32 12.8-32 32s12.8 32 32 32 32-12.8 32-32-12.8-32-32-32z" fill="#ffffff" p-id="4787"></path><path d="M480 688l-22.4-25.6C435.2 640 256 435.2 256 320c0-124.8 99.2-224 224-224s224 99.2 224 224c0 115.2-179.2 320-201.6 342.4l-22.4 25.6zM480 160c-89.6 0-160 70.4-160 160 0 60.8 89.6 188.8 160 272 70.4-83.2 160-211.2 160-272 0-89.6-70.4-160-160-160z" fill="#ffffff" p-id="4788"></path></svg>