<?xml version="1.0" standalone="no"?><!DOCTYPE svg PUBLIC "-//W3C//DTD SVG 1.1//EN" "http://www.w3.org/Graphics/SVG/1.1/DTD/svg11.dtd"><svg t="1683546157391" class="icon" viewBox="0 0 1024 1024" version="1.1" xmlns="http://www.w3.org/2000/svg" p-id="20176" xmlns:xlink="http://www.w3.org/1999/xlink" width="200" height="200"><path d="M866.986667 996.693333L720.213333 819.2h47.786667c27.306667 0 54.613333-10.24 75.093333-30.72 20.48-20.48 30.72-47.786667 27.306667-78.506667l-17.066667-296.96c-129.706667 30.72-327.68 225.28-331.093333 228.693334 0 3.413333-6.826667 6.826667-10.24 6.826666s-10.24-3.413333-13.653333-3.413333c-3.413333-3.413333-197.973333-197.973333-331.093334-228.693333l-17.066666 293.546666c0 30.72 6.826667 58.026667 27.306666 78.506667 23.893333 20.48 51.2 30.72 78.506667 30.72h47.786667l-146.773334 177.493333c-6.826667 6.826667-3.413333 17.066667 3.413334 23.893334 3.413333 3.413333 6.826667 3.413333 10.24 3.413333 3.413333 0 10.24-3.413333 13.653333-6.826667l23.893333-27.306666H819.2l23.893333 27.306666c3.413333 3.413333 6.826667 6.826667 13.653334 6.826667 3.413333 0 6.826667 0 10.24-3.413333 3.413333-6.826667 6.826667-17.066667 0-23.893334zM716.8 614.4c27.306667 0 51.2 23.893333 51.2 51.2S744.106667 716.8 716.8 716.8s-51.2-23.893333-51.2-51.2 23.893333-51.2 51.2-51.2zM256 665.6c0-27.306667 23.893333-51.2 51.2-51.2s51.2 23.893333 51.2 51.2S334.506667 716.8 307.2 716.8s-51.2-23.893333-51.2-51.2zM675.84 819.2l27.306667 34.133333H320.853333l27.306667-34.133333h327.68zM235.52 955.733333l58.026667-68.266666h440.32l58.026666 68.266666H235.52z" fill="#ffffff" p-id="20177"></path><path d="M512 119.466667m-17.066667 0a17.066667 17.066667 0 1 0 34.133334 0 17.066667 17.066667 0 1 0-34.133334 0Z" fill="#ffffff" p-id="20178"></path><path d="M853.333333 378.88l-13.653333-238.933333c-3.413333-78.506667-68.266667-139.946667-146.773333-139.946667H331.093333C252.586667 0 191.146667 61.44 184.32 139.946667l-13.653333 238.933333c126.293333 27.306667 293.546667 180.906667 341.333333 228.693333 47.786667-44.373333 215.04-201.386667 341.333333-228.693333zM754.346667 204.8c6.826667 0 13.653333 6.826667 13.653333 17.066667v136.533333c0 3.413333-3.413333 10.24-6.826667 13.653333-3.413333 3.413333-6.826667 3.413333-10.24 3.413334h-3.413333l-204.8-34.133334c-6.826667 0-13.653333-6.826667-13.653333-17.066666v-136.533334c0-3.413333 3.413333-10.24 6.826666-13.653333s6.826667-3.413333 13.653334-3.413333l204.8 34.133333zM512 68.266667c27.306667 0 51.2 23.893333 51.2 51.2S539.306667 170.666667 512 170.666667s-51.2-23.893333-51.2-51.2S484.693333 68.266667 512 68.266667z m-17.066667 256c0 6.826667-6.826667 17.066667-13.653333 17.066666l-204.8 34.133334H273.066667c-3.413333 0-6.826667 0-10.24-3.413334-3.413333-3.413333-6.826667-6.826667-6.826667-13.653333v-136.533333c0-6.826667 6.826667-17.066667 13.653333-17.066667l204.8-34.133333c3.413333 0 10.24 0 13.653334 3.413333 3.413333 3.413333 6.826667 6.826667 6.826666 13.653333v136.533334z" fill="#ffffff" p-id="20179"></path><path d="M307.2 665.6m-17.066667 0a17.066667 17.066667 0 1 0 34.133334 0 17.066667 17.066667 0 1 0-34.133334 0Z" fill="#ffffff" p-id="20180"></path><path d="M716.8 665.6m-17.066667 0a17.066667 17.066667 0 1 0 34.133334 0 17.066667 17.066667 0 1 0-34.133334 0Z" fill="#ffffff" p-id="20181"></path></svg>